<?xml version="1.0" encoding="iso-8859-1"?>
<!-- Generator: Adobe Illustrator 19.0.0, SVG Export Plug-In . SVG Version: 6.00 Build 0)  -->
<svg version="1.1" id="Capa_1" xmlns="http://www.w3.org/2000/svg" xmlns:xlink="http://www.w3.org/1999/xlink" x="0px" y="0px"
	 viewBox="0 0 512.002 512.002" style="enable-background:new 0 0 512.002 512.002;" xml:space="preserve">
<g>
	<path style="fill:#D77B28;" d="M366.338,70.634c41.469,0.035,75.065,33.684,75.02,75.162c0,1.668-0.062,3.328-0.168,4.987
		c-3.593,39.977-37.365,70.439-77.501,69.91h-45.9c0-19.499,15.809-35.308,35.308-35.308h8.827
		c21.935,0,39.721-17.786,39.721-39.721s-17.786-39.721-39.721-39.721H229.52c-19.499,0-35.308-15.809-35.308-35.308
		C194.212,70.634,366.338,70.634,366.338,70.634z"/>
	<path style="fill:#D77B28;" d="M388.406,441.367H145.664c-41.469-0.035-75.065-33.684-75.02-75.162
		c0-1.668,0.062-3.328,0.168-4.987c3.593-39.977,37.365-70.439,77.501-69.91h142.997c0,19.499-15.809,35.308-35.308,35.308H145.664
		c-21.935,0-39.721,17.786-39.721,39.721c0,21.935,17.786,39.721,39.721,39.721h207.434
		C372.596,406.06,388.406,421.869,388.406,441.367z"/>
</g>
<path style="fill:#FECB49;" d="M422.036,441.367c18.448-0.009,36.588,4.793,52.609,13.947l14.829,8.474
	c8.465,4.89,11.352,15.721,6.461,24.186c-1.095,1.898-2.542,3.575-4.255,4.943l-4.502,3.619
	c-12.543,9.992-28.096,15.438-44.135,15.447H149.548c-81.473,0-150.853-66.644-149.529-148.117
	c1.43-79.434,66.193-143.103,145.645-143.174H363.69c40.136,0.53,73.908-29.932,77.501-69.91
	c2.789-41.381-28.485-77.183-69.866-79.981c-1.659-0.115-3.328-0.168-4.987-0.168H52.981c-29.253,0-52.962-23.709-52.962-52.962
	C0.089,7.954,7.954,0.089,17.673,0.019h344.782c81.473,0,150.853,66.644,149.529,148.117
	c-1.43,79.434-66.193,143.103-145.645,143.174H148.312c-40.136-0.53-73.908,29.932-77.501,69.91
	c-2.789,41.381,28.485,77.183,69.866,79.981c1.659,0.115,3.328,0.168,4.987,0.168H422.036z"/>
<rect x="423.696" y="467.831" style="fill:#C7341E;" width="17.654" height="17.654"/>
<g>
	<path style="fill:#AD6320;" d="M397.233,441.367h-17.654c0-14.626-11.855-26.481-26.481-26.481H145.664
		c-26.799-0.026-48.522-21.75-48.548-48.548c0.026-26.799,21.75-48.522,48.548-48.548h110.337c14.626,0,26.481-11.855,26.481-26.481
		h17.654c-0.026,24.362-19.772,44.108-44.135,44.135H145.664c-17.054,0.026-30.868,13.841-30.894,30.894
		c0,17.063,13.832,30.894,30.894,30.894h207.434C377.46,397.259,397.206,417.005,397.233,441.367z"/>
	<path style="fill:#AD6320;" d="M326.617,220.693h-17.654c0.026-24.362,19.772-44.108,44.135-44.135h8.827
		c17.054-0.026,30.868-13.841,30.894-30.894c0-17.063-13.832-30.894-30.894-30.894H229.52
		c-24.362-0.026-44.108-19.772-44.135-44.135h17.654c0,14.626,11.855,26.481,26.481,26.481h132.405
		c26.799,0.026,48.522,21.75,48.548,48.548c-0.026,26.799-21.75,48.522-48.548,48.548h-8.827
		C338.471,194.212,326.617,206.067,326.617,220.693z"/>
</g>
<g>
</g>
<g>
</g>
<g>
</g>
<g>
</g>
<g>
</g>
<g>
</g>
<g>
</g>
<g>
</g>
<g>
</g>
<g>
</g>
<g>
</g>
<g>
</g>
<g>
</g>
<g>
</g>
<g>
</g>
</svg>
